HIERARCHY
ROOT Hips
{
  OFFSET 179.979 97.3047 303.174
  CHANNELS 6 Xposition Yposition Zposition Zrotation Xrotation Yrotation
  JOINT Spine
  {
    OFFSET 0.000859786 9.92346 -1.22733
    CHANNELS 3 Zrotation Xrotation Yrotation
    JOINT Spine1
    {
      OFFSET 0 11.732 0
      CHANNELS 3 Zrotation Xrotation Yrotation
      JOINT Spine2
      {
        OFFSET 0 13.4588 0
        CHANNELS 3 Zrotation Xrotation Yrotation
        JOINT Neck
        {
          OFFSET 2.54812e-05 15.0278 0.877907
          CHANNELS 3 Zrotation Xrotation Yrotation
          JOINT Head
          {
            OFFSET 0 10.3218 3.14243
            CHANNELS 3 Zrotation Xrotation Yrotation
            End Site
            {
              OFFSET 0 0 0
            }
          }
        }
        JOINT LeftShoulder
        {
          OFFSET 6.10582 9.10629 0.757062
          CHANNELS 3 Zrotation Xrotation Yrotation
          JOINT LeftArm
          {
            OFFSET 0 12.9223 0
            CHANNELS 3 Zrotation Xrotation Yrotation
            JOINT LeftForeArm
            {
              OFFSET 0 27.4047 0
              CHANNELS 3 Zrotation Xrotation Yrotation
              JOINT LeftHand
              {
                OFFSET -1.28204e-05 27.6145 0
                CHANNELS 3 Zrotation Xrotation Yrotation
                End Site
                {
                  OFFSET 0 0 0
                }
              }
            }
          }
        }
        JOINT RightShoulder
        {
          OFFSET -6.1057 9.10638 0.757076
          CHANNELS 3 Zrotation Xrotation Yrotation
          JOINT RightArm
          {
            OFFSET 0 12.9223 0
            CHANNELS 3 Zrotation Xrotation Yrotation
            JOINT RightForeArm
            {
              OFFSET 0 27.4047 0
              CHANNELS 3 Zrotation Xrotation Yrotation
              JOINT RightHand
              {
                OFFSET 1.28428e-05 27.6145 1.44975e-05
                CHANNELS 3 Zrotation Xrotation Yrotation
                End Site
                {
                  OFFSET 0 0 0
                }
              }
            }
          }
        }
      }
    }
  }
  JOINT LeftUpLeg
  {
    OFFSET 9.12387 -6.65719 -0.0554031
    CHANNELS 3 Zrotation Xrotation Yrotation
    JOINT LeftLeg
    {
      OFFSET 0 40.5994 0
      CHANNELS 3 Zrotation Xrotation Yrotation
      JOINT LeftFoot
      {
        OFFSET 0 42.099 0
        CHANNELS 3 Zrotation Xrotation Yrotation
        JOINT LeftToeBase
        {
          OFFSET 0 15.7216 0
          CHANNELS 3 Zrotation Xrotation Yrotation
          End Site
          {
            OFFSET 0 0 0
          }
        }
      }
    }
  }
  JOINT RightUpLeg
  {
    OFFSET -9.12503 -6.6556 -0.0553527
    CHANNELS 3 Zrotation Xrotation Yrotation
    JOINT RightLeg
    {
      OFFSET 0 40.5994 0
      CHANNELS 3 Zrotation Xrotation Yrotation
      JOINT RightFoot
      {
        OFFSET 0 42.099 0
        CHANNELS 3 Zrotation Xrotation Yrotation
        JOINT RightToeBase
        {
          OFFSET 0 15.7216 0
          CHANNELS 3 Zrotation Xrotation Yrotation
          End Site
          {
            OFFSET 0 0 0
          }
        }
      }
    }
  }
}
MOTION
Frames:	11
Frame Time:	0.0333333
-62.3966 90.1437 -354.754 -7.21301 1.05309 1.53059 0.759528 -1.05918 -1.8761 1.74463 11.7993 -4.04905 2.23712 18.3768 -4.17618 -1.56851 10.63 -5.21807 15.0797 -7.20094 -8.32499 -94.6746 -8.22294 91.1155 76.078 47.8681 -10.7507 102.635 -2.74366 1.43054 13.344 -5.95403 45.6738 109.634 -17.24 -89.5916 25.0056 39.0966 -86.91 -41.6642 -13.4525 0.88908 -6.39665 -20.6562 -18.918 -177.909 31.695 -12.0276 -7.3024 -58.3429 -4.39638 23.6028 75.4977 -4.76716 -0.965274 26.367 -3.60229 166.077 17.5434 -19.8615 5.80655 -36.3439 0.604335 15.6206 68.6658 -4.95627 0.963546 26.3682 3.55537 
-65.2517 86.4639 -353.149 -7.50287 -1.189 3.95291 0.521592 -1.40019 -1.74346 1.23252 11.1288 -3.69141 1.68004 17.7091 -3.80197 -1.03568 12.4318 -5.59978 15.0771 -9.1305 -8.34221 -98.1026 -9.08825 91.176 69.0735 53.9461 -7.41591 99.0978 -3.00934 1.28864 12.81 -5.39723 44.0409 111.195 -19.321 -88.939 21.5803 44.6927 -82.8017 -36.8522 -14.5912 0.903431 -3.52408 -19.6757 -13.761 -178.053 31.2245 -11.9743 -0.728228 -66.3344 -0.791613 105.832 85.4861 -89.94 -0.965274 26.367 -3.60229 164.887 14.6334 -9.08022 3.30163 -42.5898 -5.58043 75.9734 82.0169 -63.1723 0.963546 26.3682 3.55537 
-67.4287 84.2937 -351.896 -9.00583 -1.84183 4.07705 0.577324 -1.77743 -1.20105 1.28121 10.3794 -2.61144 1.59701 16.9668 -2.68517 0.176014 10.6775 -6.37939 13.3978 -7.69009 -8.6197 -100.453 -10.664 91.0062 57.9162 57.6687 -0.475705 94.8847 -3.77273 1.11865 8.37919 -3.08701 49.0015 112.581 -21.042 -88.339 14.9231 51.1964 -68.4704 -32.7743 -14.9941 0.890351 1.21563 -20.6312 -5.31222 -176.288 33.9852 -7.87655 -2.73105 -73.7435 -4.14372 128.355 84.3242 -115.556 -0.965274 26.367 -3.60229 167.31 15.7326 -5.98894 1.67362 -48.9418 -8.15597 124.979 80.6412 -113.351 0.963546 26.3682 3.55537 
-68.5753 84.9728 -350.829 -8.86732 -3.38887 1.9681 0.426736 -1.62692 -0.61688 0.923777 10.6896 -1.38676 1.09245 17.2821 -1.42669 0.796312 9.0695 -6.77371 11.9551 -5.46802 -8.79027 -102.768 -11.5951 90.9 41.0374 57.099 10.65 89.9024 -4.40256 0.929427 5.16821 -2.65084 55.7875 112.114 -20.5574 -88.5179 6.31513 54.6037 -51.0562 -36.6761 -14.8599 0.912195 6.55309 -22.7601 4.3442 -175.801 31.5735 -6.82431 -3.76279 -73.457 -6.21773 101.156 84.9571 -90.6008 -0.965274 26.367 -3.60229 168.455 15.689 -10.2539 6.00702 -50.9283 -4.20037 102.558 82.6235 -93.1863 0.963546 26.3682 3.55537 
-68.5251 88.2772 -350.123 -8.63594 -3.08817 -0.664111 0.433789 -1.85164 -0.282145 0.903927 10.2429 -0.713056 0.991117 16.8369 -0.732639 -0.0282194 10.8394 -6.13895 11.4625 -3.5929 -8.50305 -102.897 -13.9706 90.4089 28.912 54.706 21.8767 83.2503 -6.00604 0.662511 5.75424 -6.11399 52.8964 109.052 -18.9209 -89.1482 -2.66064 54.407 -41.363 -45.543 -16.6064 1.02345 3.85421 -21.479 0.532534 -177.431 26.3409 -5.2119 -1.68348 -64.5042 -5.80365 80.6783 84.1489 -72.0149 -0.965274 26.367 -3.60229 168.7 15.8482 -8.21454 3.95322 -47.27 -7.05279 35.4725 75.7287 -29.7274 0.963546 26.3682 3.55537 
-68.2186 92.3876 -349.738 -8.27666 -1.49865 -3.72828 0.526846 -2.33493 0.129196 1.0536 9.27935 0.0880348 1.04438 15.8738 0.0909282 -0.450103 13.6166 -5.49492 9.83362 -0.18901 -7.96674 -101.93 -15.4301 90.1088 20.2101 50.7272 32.4829 76.0943 -8.31181 0.369213 6.22875 -8.31442 45.568 106.456 -17.6524 -89.5703 -10.1537 49.8893 -32.593 -56.3116 -15.7703 1.00925 -4.00364 -18.5525 -13.4197 -179.09 21.499 -2.91704 -1.50408 -52.494 -7.52839 46.9099 80.3379 -39.8116 -0.965274 26.367 -3.60229 168.752 18.4712 -6.00275 3.68863 -43.8867 -8.48681 17.2627 60.4588 -14.7447 0.963546 26.3682 3.55537 
-67.6585 96.4654 -349.467 -9.06964 0.367269 -6.22265 0.851895 -2.75961 0.391112 1.68928 8.43241 0.514552 1.62917 15.0266 0.527881 -0.889871 17.6808 -4.55224 8.62525 0.066257 -6.9783 -100.752 -16.0091 90.0062 13.5284 44.9197 41.623 70.52 -9.72336 0.165398 7.04345 -10.3101 44.0641 103.225 -16.5257 -89.905 -17.3839 44.2551 -23.7823 -65.9241 -12.8839 0.885902 -7.45268 -15.0165 -21.0739 -177.936 18.4919 -0.831435 -3.25658 -42.026 -9.40094 24.3849 70.7127 -17.8385 -0.965274 26.367 -3.60229 170.173 22.2317 -1.25433 1.9273 -43.5231 -8.21424 13.3294 54.8886 -10.6148 0.963546 26.3682 3.55537 
-67.0999 99.6268 -349.272 -9.02786 1.56609 -7.68216 0.892011 -2.84782 0.354416 1.77284 8.25539 0.429427 1.72293 14.8497 0.440565 -1.48143 20.4324 -3.54814 7.6627 -1.49369 -5.92435 -99.1335 -16.0303 90.0237 8.39289 37.4544 49.0065 66.805 -10.4845 0.0391924 8.12084 -9.27253 46.0319 100.317 -14.6799 -90.3018 -23.4659 36.5606 -14.8745 -74.1017 -9.05259 0.653713 -7.917 -13.6789 -19.9601 -176.213 16.9135 -2.33147 -2.51847 -37.2646 -3.84174 4.09982 65.0754 -4.55886 -0.965274 26.367 -3.60229 170.625 25.5216 4.07801 1.69856 -43.941 -1.62619 7.37774 60.0544 -3.04995 0.963546 26.3682 3.55537 
-66.4493 101.635 -349.043 -8.11279 1.85534 -9.19195 0.707578 -2.69774 0.461985 1.39239 8.55711 0.702091 1.3099 15.1511 0.720043 -2.85704 22.0543 -2.46056 7.93474 -2.91315 -5.38302 -96.8443 -14.753 90.2494 4.88175 29.9971 56.2005 63.6032 -10.846 -0.0512462 8.0869 -7.56412 46.2634 96.9107 -14.2509 -90.3696 -29.2784 27.7312 -6.05618 -79.8323 -5.70525 0.563295 -7.69167 -13.3238 -13.3736 -176.321 16.6434 -0.58237 -2.93241 -40.6841 3.91681 -15.042 67.4304 9.79644 -0.965274 26.367 -3.60229 170.023 28.4014 10.5115 1.76615 -43.4128 4.28929 -2.99607 63.8104 5.55272 0.963546 26.3682 3.55537 
-65.9097 102.523 -348.885 -7.42499 1.85761 -11.652 0.607932 -2.60628 0.828884 1.16227 8.7435 1.47011 0.98797 15.3358 1.50741 -5.33799 23.8035 -1.0687 8.7054 -3.59793 -5.18957 -94.216 -12.1729 90.5852 1.69413 23.6582 65.0091 60.1148 -10.9345 -0.134722 7.91999 -6.04789 45.7082 93.0328 -14.2986 -90.3503 -33.8827 17.5893 1.1284 -82.2339 -4.15323 0.493717 -7.46749 -13.3361 -6.15865 -176.942 16.6125 1.45262 -2.96568 -47.912 7.36207 -22.4966 68.2831 17.4742 -0.965274 26.367 -3.60229 170.431 31.1589 16.4827 1.05717 -41.6744 6.63037 -8.74215 66.5726 11.1798 0.963546 26.3682 3.55537 
-65.5457 102.52 -348.671 -6.86567 1.42618 -14.9785 0.4614 -2.44851 1.26021 0.829685 9.06044 2.38312 0.545957 15.6491 2.44468 -7.75656 25.0313 0.546969 8.82505 -3.93731 -4.65883 -92.2127 -10.6669 90.7058 -0.178653 18.7182 73.9166 55.2599 -10.902 -0.234509 9.34942 -4.06726 47.4383 90.4425 -13.7323 -90.3805 -37.0779 5.9173 5.86156 -81.0159 -5.38188 0.548334 -8.08301 -13.7799 -2.40321 -177.054 14.7769 3.31069 -4.19974 -53.9643 4.82208 -19.6728 68.1739 14.6634 -0.965274 26.367 -3.60229 171.829 33.0525 20.008 2.07315 -39.0144 6.88429 -7.64303 68.2536 11.3846 0.963546 26.3682 3.55537 
